<svg width="48" height="43" viewBox="0 0 48 43" fill="none" xmlns="http://www.w3.org/2000/svg">
<path d="M30.1919 16.7628C32.463 16.7628 34.3062 18.606 34.3062 20.8771V32.0421C34.3062 34.8486 33.1914 37.5402 31.2069 39.5247C29.2224 41.5092 26.5308 42.624 23.7243 42.624C20.9178 42.624 18.2262 41.5092 16.2417 39.5247C14.2572 37.5402 13.1423 34.8486 13.1423 32.0421V20.8771C13.1423 18.606 14.9832 16.7628 17.2566 16.7628H30.1919ZM12.2701 16.7628C11.4233 17.7819 10.914 19.0388 10.8125 20.3599L10.789 20.8771V32.0421C10.789 34.0334 11.2404 35.9189 12.0444 37.6023C10.6509 37.975 9.19036 38.0224 7.77566 37.7405C6.36096 37.4587 5.03003 36.8553 3.88578 35.9769C2.74154 35.0986 1.81463 33.9688 1.17674 32.675C0.538849 31.3812 0.20706 29.9581 0.207031 28.5156V20.8771C0.20707 19.8445 0.595352 18.8498 1.2948 18.0902C1.99425 17.3307 2.95373 16.8619 3.98277 16.7769L4.32132 16.7628H12.2701ZM35.1785 16.7628H43.1132C45.3842 16.7628 47.2274 18.606 47.2274 20.8771V28.5179C47.2278 29.9595 46.8967 31.3818 46.2597 32.675C45.6228 33.9683 44.6971 35.0977 43.5541 35.9762C42.4111 36.8547 41.0815 37.4586 39.668 37.7414C38.2544 38.0242 36.7948 37.9782 35.4018 37.607C36.1071 36.1305 36.5397 34.5036 36.6361 32.7827L36.6572 32.0421V20.8771C36.6572 19.3137 36.1048 17.8795 35.1785 16.7628ZM23.7172 0.305664C25.5878 0.305664 27.3818 1.04875 28.7045 2.37146C30.0272 3.69416 30.7703 5.48814 30.7703 7.35873C30.7703 9.22931 30.0272 11.0233 28.7045 12.346C27.3818 13.6687 25.5878 14.4118 23.7172 14.4118C21.8466 14.4118 20.0527 13.6687 18.73 12.346C17.4073 11.0233 16.6642 9.22931 16.6642 7.35873C16.6642 5.48814 17.4073 3.69416 18.73 2.37146C20.0527 1.04875 21.8466 0.305664 23.7172 0.305664ZM38.9989 2.65668C40.5577 2.65668 42.0527 3.27592 43.1549 4.37818C44.2572 5.48043 44.8764 6.97541 44.8764 8.53424C44.8764 10.0931 44.2572 11.588 43.1549 12.6903C42.0527 13.7925 40.5577 14.4118 38.9989 14.4118C37.44 14.4118 35.9451 13.7925 34.8428 12.6903C33.7406 11.588 33.1213 10.0931 33.1213 8.53424C33.1213 6.97541 33.7406 5.48043 34.8428 4.37818C35.9451 3.27592 37.44 2.65668 38.9989 2.65668ZM8.4356 2.65668C9.99443 2.65668 11.4894 3.27592 12.5917 4.37818C13.6939 5.48043 14.3132 6.97541 14.3132 8.53424C14.3132 10.0931 13.6939 11.588 12.5917 12.6903C11.4894 13.7925 9.99443 14.4118 8.4356 14.4118C6.87678 14.4118 5.3818 13.7925 4.27955 12.6903C3.17729 11.588 2.55805 10.0931 2.55805 8.53424C2.55805 6.97541 3.17729 5.48043 4.27955 4.37818C5.3818 3.27592 6.87678 2.65668 8.4356 2.65668Z" fill="#114EF5"/>
</svg>
