<?xml version="1.0" standalone="no"?>
<!DOCTYPE svg PUBLIC "-//W3C//DTD SVG 20010904//EN"
 "http://www.w3.org/TR/2001/REC-SVG-20010904/DTD/svg10.dtd">
<svg version="1.0" xmlns="http://www.w3.org/2000/svg"
 width="2000.000000pt" height="2000.000000pt" viewBox="0 0 2000.000000 2000.000000"
 preserveAspectRatio="xMidYMid meet">

<g transform="translate(0.000000,2000.000000) scale(0.100000,-0.100000)"
fill="#000000" stroke="none">
<path d="M3450 10005 l0 -6415 1450 0 1450 0 3 2892 3 2893 22 150 c95 658
262 1206 527 1736 652 1300 1760 2080 3255 2288 309 43 497 54 899 54 l384 0
-8 1381 c-5 895 -11 1383 -17 1387 -6 4 -38 9 -72 13 -451 44 -991 41 -1461
-10 -1029 -111 -2006 -423 -2830 -905 -160 -93 -465 -293 -605 -397 l-95 -70
-3 709 -2 709 -1450 0 -1450 0 0 -6415z"/>
<path d="M13650 13626 c0 -1788 -4 -2840 -10 -2922 -65 -835 -369 -1744 -808
-2414 -752 -1151 -1907 -1780 -3452 -1881 -96 -6 -320 -9 -498 -8 l-322 4 0
-1041 c0 -572 3 -1196 7 -1386 l6 -345 116 -12 c518 -51 1094 -36 1676 45
1152 160 2217 577 3098 1212 81 59 157 113 167 121 20 13 20 6 20 -698 l0
-711 1445 0 1445 0 0 6415 0 6415 -1445 0 -1445 0 0 -2794z"/>
<path d="M8560 9980 l0 -1440 1438 2 1437 3 3 1438 2 1437 -1440 0 -1440 0 0
-1440z"/>
</g>
</svg>
